# xmcd CD database file
#
# Track frame offsets:
#	150
#	13177
#	28331
#	43142
#	57149
#	71081
#	83297
#	94645
#	105139
#	119030
#	133886
#	148237
#	162469
#	175756
#	189110
#	205382
#	221423
#	237484
#	252079
#	266566
#	287879
#	303038
#	317790
#	331829
#
# Disc length: 4624 seconds
#
# Revision: 0
# Processed by: cddbd v1.5.2PL0 Copyright (c) Steve Scherf et al.
# Submitted via: CDex 1.51
#
DISCID=5d120e18
DTITLE=Various Artist - Here Come The Boys 1925-1932
DYEAR=2010
DGENRE=Jazz
TTITLE0=Red Hot Henry Brown - Irving Kaufman
TTITLE1=St. Louis Blues - Al Bernard
TTITLE2=Beale Street Blues - Al Bernard
TTITLE3=Twiddlin' My Thumbs - Art Gillham and His Southland Syncopators
TTITLE4=Rotten Cotten Gloves - Harry Fay
TTITLE5=Let's Misbehave - Banjo Buddy
TTITLE6=Angel - Johnny Marvin
TTITLE7=Good Little, Bad Little You - Chick Endor
TTITLE8=I've Got A Feeling I'm Falling - Willard Robison
TTITLE9=S'posin - Seger Ellis
TTITLE10=To  Be In Love (Espesh'lly With You) - Seger Ellis
TTITLE11=Ain't Misbehavin' - Seger Ellis
TTITLE12=Sweetheart's Holiday - Charles W. Hamp
TTITLE13=Let's Amalgamate - Barry Oliver
TTITLE14='Leven Thirty Saturday Night - Eddie Walters
TTITLE15=Me And The Girl Next Door - Eddie Walters
TTITLE16=Sweepin' The Clouds Away - Charles 'Buddy' Rogers
TTITLE17=I Love You So Much - Eddie Walters
TTITLE18=It's A Lonesome Old Town - Seger Ellis
TTITLE19=Ooh! That Kiss - Smith Ballew - Ben Selvin and His Orchestra
TTITLE20=Fit As A Fiddle - Paul Small
TTITLE21=Baby - Paul Small
TTITLE22=Happy Times - Endor And Farrell
TTITLE23=Ain't It The Truth - Endor And Farrell
EXTD=YEAR: 2010
EXTT0=
EXTT1=
EXTT2=
EXTT3=
EXTT4=
EXTT5=
EXTT6=
EXTT7=
EXTT8=
EXTT9=
EXTT10=
EXTT11=
EXTT12=
EXTT13=
EXTT14=
EXTT15=
EXTT16=
EXTT17=
EXTT18=
EXTT19=
EXTT20=
EXTT21=
EXTT22=
EXTT23=
PLAYORDER=
